Genre:Animation | Adventure | Comedy | Family 
Language:English
IMDb:http://www.imdb.com/title/tt1213012/
Source:RUS/UNDEAD
Sample:Yes

General
Complete name :Alpha and Omega 2010 CAM XviD Feel-Free
Format : AVI
Format/Info : Audio Video Interleave
File size : 750 MiB
Duration : 1h 14mn
Overall bit rate : 1 404 Kbps
Video #0
Codec ID : XVID
Codec ID/Hint : XviD
Duration : 1h 14mn
Bit rate : 1 267 Kbps
Width : 652 pixels
Height : 352 pixels
Display aspect ratio : 1.852
Frame rate : 25.000 fps
Resolution : 24 bits
Colorimetry : 4:2:0
Scan type : Progressive
Bits/(Pixel*Frame) : 0.221
Stream size : 676 MiB (90%)
Writing library : XviD 1.2.1 (UTC 2008-12-04)
Audio #1
ID : 1
Format : AC-3
Format/Info : Audio Coding 3
Codec ID : 2000
Duration : 1h 14mn
Bit rate mode : Constant
Bit rate : 128 Kbps
Channel(s) : 2 channels
Channel positions : L R
Sampling rate : 48.0 KHz
Stream size : 68.3 MiB (9%)
Alignment : Split accross interleaves
Interleave, duration : 40 ms (1.00 video frame)
Interleave, preload duration : 500 ms
Plot
Two young wolves at opposite ends of their pack's social order are thrown together into a foreign land and need each other to return home, but love complicates everything









================================== 
http://thepiratebay.org/user/hiest
==================================

